<svg xmlns="http://www.w3.org/2000/svg" viewBox="0 0 64 64" role="img" aria-label="Dog icon">
  <defs>
    <radialGradient id="face" cx="32" cy="32" r="28" gradientUnits="userSpaceOnUse">
      <stop offset="0%" stop-color="#fef9ef" />
      <stop offset="100%" stop-color="#f1d9b2" />
    </radialGradient>
  </defs>
  <rect width="64" height="64" rx="16" fill="#2f1f54" />
  <g transform="translate(10 9)">
    <path
      d="M6 14c-1.5 7.5 1.2 12.2 6.2 11.4 5-0.8 6.8-4.8 3.9-11.4C13.3 8.4 7.2 8 6 14z"
      fill="#8a5e3b"
    />
    <path
      d="M38 14c1.5 7.5-1.2 12.2-6.2 11.4-5-0.8-6.8-4.8-3.9-11.4C30.7 8.4 36.8 8 38 14z"
      fill="#8a5e3b"
    />
    <circle cx="22" cy="24" r="20" fill="url(#face)" />
    <path
      d="M20.5 29c-2 0-3.5 1.6-3.5 3.6 0 3.8 3.5 6.4 7 6.4s7-2.6 7-6.4c0-2-1.5-3.6-3.5-3.6h-7z"
      fill="#5b3a22"
    />
    <path
      d="M23.5 30c-1 0-1.5 0.8-1.5 1.8 0 1.5 1.4 2.7 3 2.7s3-1.2 3-2.7c0-1-0.5-1.8-1.5-1.8h-3z"
      fill="#2f1f54"
    />
    <g fill="#2f1f54">
      <circle cx="16.5" cy="20.5" r="2.5" />
      <circle cx="27.5" cy="20.5" r="2.5" />
    </g>
    <path
      d="M12 32c1.2 5.2 5.5 8.8 10.6 8.8S32 37.3 33.2 32"
      fill="none"
      stroke="#2f1f54"
      stroke-width="2.5"
      stroke-linecap="round"
    />
  </g>
</svg>
